<svg id="Laag_1" data-name="Laag 1" xmlns="http://www.w3.org/2000/svg" viewBox="0 0 48.18898 51.02362"><defs><style>.cls-1{fill:#fff;}.cls-2{fill:#fad7d7;}.cls-3{fill:#f0919a;}</style></defs><title>MyPlugin_setup_u-shape</title><polyline class="cls-1" points="0 0 0 51.023 48.19 51.023 48.19 0 0 0"/><path class="cls-2" d="M26.357,24.54685a1.63663,1.63663,0,0,0-.675-.16706H15.59593a1.40843,1.40843,0,0,0-.78894.22309,1.26635,1.26635,0,0,0-.43005.49493,1.60256,1.60256,0,0,0-.166.675v3.16607a1.4037,1.4037,0,0,0,.222.796,1.26666,1.26666,0,0,0,.495.43,1.58518,1.58518,0,0,0,.675.166h10.086a1.40255,1.40255,0,0,0,.788-.222,1.26747,1.26747,0,0,0,.431-.494,1.62551,1.62551,0,0,0,.166-.676V25.7728a1.41187,1.41187,0,0,0-.222-.796A1.26621,1.26621,0,0,0,26.357,24.54685Z"/><path class="cls-2" d="M33.757,11.20084a1.26107,1.26107,0,0,0-.494-.431,1.62648,1.62648,0,0,0-.675-.166H29.413a1.4053,1.4053,0,0,0-.788.222,1.2663,1.2663,0,0,0-.43.495,1.60769,1.60769,0,0,0-.166.675v3.167a1.40824,1.40824,0,0,0,.222.795,1.26963,1.26963,0,0,0,.495.431,1.62369,1.62369,0,0,0,.675.166h3.173a1.40843,1.40843,0,0,0,.789-.222,1.27757,1.27757,0,0,0,.431-.495,1.62493,1.62493,0,0,0,.166-.675v-3.167A1.39912,1.39912,0,0,0,33.757,11.20084Z"/><path class="cls-2" d="M33.383,17.68979a1.41724,1.41724,0,0,0-.789-.222h-3.173a1.62921,1.62921,0,0,0-.675.167,1.26776,1.26776,0,0,0-.495.43,1.40292,1.40292,0,0,0-.222.795v10.08a1.60788,1.60788,0,0,0,.166.67505,1.27389,1.27389,0,0,0,.43.495,1.41748,1.41748,0,0,0,.79.22205h3.173a1.6133,1.6133,0,0,0,.67408-.16705,1.26714,1.26714,0,0,0,.495-.43,1.41112,1.41112,0,0,0,.223-.795v-10.08a1.61688,1.61688,0,0,0-.167-.675A1.28091,1.28091,0,0,0,33.383,17.68979Z"/><path class="cls-2" d="M14.807,23.24484a1.4052,1.4052,0,0,0,.788.222h3.175a1.607,1.607,0,0,0,.67505-.166,1.27168,1.27168,0,0,0,.494-.43,1.41226,1.41226,0,0,0,.223-.796v-10.079a1.61709,1.61709,0,0,0-.167-.675,1.26625,1.26625,0,0,0-.43-.495,1.40889,1.40889,0,0,0-.789-.222H15.603a1.60209,1.60209,0,0,0-.675.166,1.26994,1.26994,0,0,0-.495.431,1.39789,1.39789,0,0,0-.222.795v10.079a1.60277,1.60277,0,0,0,.166.675A1.26731,1.26731,0,0,0,14.807,23.24484Z"/><path class="cls-3" d="M33.57994,31.24484a.39986.39986,0,0,0-.4.4,1.99371,1.99371,0,0,1-.247,1.264,1.16582,1.16582,0,0,1-.579.356,5.73162,5.73162,0,0,1-2.70606,0,.98889.98889,0,0,1-.709-.58,2.91366,2.91366,0,0,1-.11695-1.04.4.4,0,0,0-.8,0,2.68827,2.68827,0,0,0,.425,1.768,1.95542,1.95542,0,0,0,.95594.613,6.45322,6.45322,0,0,0,3.196,0,1.79915,1.79915,0,0,0,1.207-1.044,3.60016,3.60016,0,0,0,.174-1.337A.39987.39987,0,0,0,33.57994,31.24484Z"/><path class="cls-3" d="M26.67393,31.24484a.39989.39989,0,0,0-.4.4,1.99376,1.99376,0,0,1-.247,1.264,1.16582,1.16582,0,0,1-.579.356,4.51123,4.51123,0,0,1-1.353.162,4.51127,4.51127,0,0,1-1.353-.162.98893.98893,0,0,1-.70905-.58,2.93735,2.93735,0,0,1-.11694-1.04.4.4,0,0,0-.8,0,2.69389,2.69389,0,0,0,.425,1.768,1.96022,1.96022,0,0,0,.95593.613,5.26177,5.26177,0,0,0,1.59808.201,5.261,5.261,0,0,0,1.598-.201,1.79727,1.79727,0,0,0,1.207-1.044,3.60132,3.60132,0,0,0,.17395-1.337A.39988.39988,0,0,0,26.67393,31.24484Z"/><path class="cls-3" d="M19.768,31.24484a.39992.39992,0,0,0-.4.4,1.99368,1.99368,0,0,1-.247,1.264,1.16166,1.16166,0,0,1-.579.356,4.5111,4.5111,0,0,1-1.353.162,4.51139,4.51139,0,0,1-1.353-.162.99106.99106,0,0,1-.709-.58,2.93755,2.93755,0,0,1-.11695-1.04.4.4,0,0,0-.80005,0,2.694,2.694,0,0,0,.42505,1.768,1.96016,1.96016,0,0,0,.956.613,5.2613,5.2613,0,0,0,1.598.201,5.25653,5.25653,0,0,0,1.598-.201,1.79709,1.79709,0,0,0,1.207-1.044,3.58116,3.58116,0,0,0,.174-1.337A.39986.39986,0,0,0,19.768,31.24484Z"/><path class="cls-3" d="M36.31193,15.62381a2.913,2.913,0,0,1-1.04.117.4.4,0,1,0,0,.8,2.69336,2.69336,0,0,0,1.768-.425,1.96355,1.96355,0,0,0,.614-.956,5.32316,5.32316,0,0,0,.201-1.598,5.32268,5.32268,0,0,0-.201-1.598,1.79929,1.79929,0,0,0-1.044-1.207,3.60914,3.60914,0,0,0-1.338-.17395.4.4,0,1,0,0,.8,1.99856,1.99856,0,0,1,1.265.247,1.159,1.159,0,0,1,.355.579,4.53922,4.53922,0,0,1,.163,1.353,4.53939,4.53939,0,0,1-.163,1.353A.98647.98647,0,0,1,36.31193,15.62381Z"/><path class="cls-3" d="M36.61,17.66281a3.58769,3.58769,0,0,0-1.338-.174.4.4,0,1,0,0,.79993,1.99878,1.99878,0,0,1,1.265.247,1.15434,1.15434,0,0,1,.355.579,4.5391,4.5391,0,0,1,.163,1.353,4.53929,4.53929,0,0,1-.163,1.353.98866.98866,0,0,1-.58.709,2.93568,2.93568,0,0,1-1.04.117.4.4,0,1,0,0,.8,2.69342,2.69342,0,0,0,1.768-.425,1.96819,1.96819,0,0,0,.614-.956,5.32318,5.32318,0,0,0,.201-1.598,5.31829,5.31829,0,0,0-.201-1.598A1.79931,1.79931,0,0,0,36.61,17.66281Z"/><path class="cls-3" d="M36.61,24.56882a3.58769,3.58769,0,0,0-1.338-.17395.4.4,0,1,0,0,.79992,1.99245,1.99245,0,0,1,1.265.247,1.15529,1.15529,0,0,1,.355.578,4.547,4.547,0,0,1,.163,1.354,4.53939,4.53939,0,0,1-.163,1.353.98862.98862,0,0,1-.58.709,2.91705,2.91705,0,0,1-1.04.116.4.4,0,1,0,0,.8,2.682,2.682,0,0,0,1.768-.425,1.96048,1.96048,0,0,0,.614-.955,5.32311,5.32311,0,0,0,.201-1.598,5.31824,5.31824,0,0,0-.201-1.598A1.79929,1.79929,0,0,0,36.61,24.56882Z"/><path class="cls-3" d="M11.878,25.31186a2.89122,2.89122,0,0,1,1.04-.11707.4.4,0,1,0,0-.79992,2.68141,2.68141,0,0,0-1.76794.42492,1.95131,1.95131,0,0,0-.613.95606,5.25653,5.25653,0,0,0-.201,1.598,5.2613,5.2613,0,0,0,.201,1.598,1.79491,1.79491,0,0,0,1.044,1.206,3.58006,3.58006,0,0,0,1.337.174.4.4,0,1,0,0-.8,1.993,1.993,0,0,1-1.265-.246,1.17306,1.17306,0,0,1-.35492-.579,4.50873,4.50873,0,0,1-.162-1.353,4.51627,4.51627,0,0,1,.162-1.354A.98861.98861,0,0,1,11.878,25.31186Z"/><path class="cls-3" d="M11.878,18.40585a2.91477,2.91477,0,0,1,1.04-.11706.4.4,0,1,0,0-.79993,2.68142,2.68142,0,0,0-1.76794.42493,1.95609,1.95609,0,0,0-.613.95605,5.25658,5.25658,0,0,0-.201,1.598,5.26137,5.26137,0,0,0,.201,1.598,1.79259,1.79259,0,0,0,1.044,1.206,3.58118,3.58118,0,0,0,1.337.175.4.4,0,1,0,0-.8,1.99816,1.99816,0,0,1-1.265-.247,1.17306,1.17306,0,0,1-.35492-.579,4.50864,4.50864,0,0,1-.162-1.353,4.50357,4.50357,0,0,1,.162-1.353A.98855.98855,0,0,1,11.878,18.40585Z"/><path class="cls-3" d="M11.878,11.49985a2.91331,2.91331,0,0,1,1.04-.117.4.4,0,1,0,0-.8,2.68106,2.68106,0,0,0-1.76794.425,1.95561,1.95561,0,0,0-.613.956,5.26087,5.26087,0,0,0-.201,1.598,5.26134,5.26134,0,0,0,.201,1.598,1.79259,1.79259,0,0,0,1.044,1.206,3.58118,3.58118,0,0,0,1.337.175.4.4,0,1,0,0-.8,1.99824,1.99824,0,0,1-1.265-.247,1.17306,1.17306,0,0,1-.35492-.579,4.50873,4.50873,0,0,1-.162-1.353,4.50856,4.50856,0,0,1,.162-1.353A.98851.98851,0,0,1,11.878,11.49985Z"/></svg>