<svg id="Laag_1" data-name="Laag 1" xmlns="http://www.w3.org/2000/svg" viewBox="0 0 48.18898 51.02362"><defs><style>.cls-1{fill:#fff;}.cls-2{fill:#fad7d7;}.cls-3{fill:#f0919a;}</style></defs><title>MyPlugin_setup_classroom</title><polyline class="cls-1" points="0 0 0 51.023 48.188 51.023 48.188 0 0 0"/><path class="cls-2" d="M21.95994,24.54685a1.63638,1.63638,0,0,0-.675-.16706H11.199a1.40841,1.40841,0,0,0-.78894.22309,1.277,1.277,0,0,0-.431.49493,1.62051,1.62051,0,0,0-.166.675v3.16607a1.40448,1.40448,0,0,0,.223.796,1.26716,1.26716,0,0,0,.495.43,1.58509,1.58509,0,0,0,.674.166H21.292a1.40316,1.40316,0,0,0,.788-.222,1.27592,1.27592,0,0,0,.43091-.494,1.62474,1.62474,0,0,0,.16607-.676V25.7728a1.41214,1.41214,0,0,0-.22308-.796A1.25636,1.25636,0,0,0,21.95994,24.54685Z"/><path class="cls-2" d="M21.95994,10.76981a1.60766,1.60766,0,0,0-.675-.166H11.199a1.40854,1.40854,0,0,0-.78894.222,1.27752,1.27752,0,0,0-.431.495,1.62037,1.62037,0,0,0-.166.675v3.167a1.40332,1.40332,0,0,0,.223.795,1.26735,1.26735,0,0,0,.495.43006,1.61247,1.61247,0,0,0,.674.167h10.086a1.41627,1.41627,0,0,0,.78906-.222,1.29165,1.29165,0,0,0,.43091-.495,1.62444,1.62444,0,0,0,.16607-.675v-3.167a1.4122,1.4122,0,0,0-.22308-.796A1.25789,1.25789,0,0,0,21.95994,10.76981Z"/><path class="cls-2" d="M37.658,24.54685a1.637,1.637,0,0,0-.675-.16706H26.89689a1.40872,1.40872,0,0,0-.78894.22309,1.26692,1.26692,0,0,0-.43.49493,1.63108,1.63108,0,0,0-.167.675v3.16607a1.41312,1.41312,0,0,0,.223.796,1.2668,1.2668,0,0,0,.495.43,1.58542,1.58542,0,0,0,.67505.166H36.99a1.40253,1.40253,0,0,0,.788-.222,1.26782,1.26782,0,0,0,.431-.494,1.62631,1.62631,0,0,0,.166-.676V25.7728a1.41189,1.41189,0,0,0-.222-.796A1.2665,1.2665,0,0,0,37.658,24.54685Z"/><path class="cls-2" d="M38.15294,11.1998a1.26806,1.26806,0,0,0-.49494-.43,1.60822,1.60822,0,0,0-.675-.166H26.89689a1.40885,1.40885,0,0,0-.78894.222,1.26747,1.26747,0,0,0-.43.495,1.63093,1.63093,0,0,0-.167.675v3.167a1.412,1.412,0,0,0,.223.795,1.267,1.267,0,0,0,.495.43006,1.61266,1.61266,0,0,0,.67505.167H36.989a1.41352,1.41352,0,0,0,.78894-.222,1.28335,1.28335,0,0,0,.431-.495,1.626,1.626,0,0,0,.166-.675v-3.167A1.412,1.412,0,0,0,38.15294,11.1998Z"/><path class="cls-3" d="M22.2769,31.24484a.39989.39989,0,0,0-.4.4,1.99341,1.99341,0,0,1-.247,1.264,1.16686,1.16686,0,0,1-.5791.356,4.51021,4.51021,0,0,1-1.35291.162,4.51213,4.51213,0,0,1-1.35309-.162.98889.98889,0,0,1-.709-.58,2.91485,2.91485,0,0,1-.117-1.04.4.4,0,0,0-.8,0,2.68773,2.68773,0,0,0,.425,1.768,1.95608,1.95608,0,0,0,.95606.613,5.26108,5.26108,0,0,0,1.598.201,5.26146,5.26146,0,0,0,1.598-.201,1.7994,1.7994,0,0,0,1.207-1.044,3.6014,3.6014,0,0,0,.174-1.337A.4.4,0,0,0,22.2769,31.24484Z"/><path class="cls-3" d="M15.371,31.24484a.39986.39986,0,0,0-.4.4,1.99372,1.99372,0,0,1-.24707,1.264,1.16588,1.16588,0,0,1-.57892.356,4.51225,4.51225,0,0,1-1.353.162,4.51156,4.51156,0,0,1-1.353-.162.99086.99086,0,0,1-.709-.58,2.93741,2.93741,0,0,1-.117-1.04.4.4,0,0,0-.8,0,2.69348,2.69348,0,0,0,.425,1.768,1.96041,1.96041,0,0,0,.956.613,5.26134,5.26134,0,0,0,1.598.201,5.26068,5.26068,0,0,0,1.598-.201,1.79714,1.79714,0,0,0,1.207-1.044,3.58022,3.58022,0,0,0,.174-1.337A.39992.39992,0,0,0,15.371,31.24484Z"/><path class="cls-3" d="M22.2769,17.4678a.39991.39991,0,0,0-.4.4,1.99824,1.99824,0,0,1-.247,1.265,1.174,1.174,0,0,1-.5791.355,4.50988,4.50988,0,0,1-1.35291.162,4.5118,4.5118,0,0,1-1.35309-.162.98881.98881,0,0,1-.709-.58,2.91432,2.91432,0,0,1-.117-1.04.4.4,0,1,0-.8,0,2.68772,2.68772,0,0,0,.425,1.768,1.96418,1.96418,0,0,0,.95606.614,5.29588,5.29588,0,0,0,1.598.2,5.29626,5.29626,0,0,0,1.598-.2,1.80189,1.80189,0,0,0,1.207-1.044,3.60932,3.60932,0,0,0,.174-1.338A.4.4,0,0,0,22.2769,17.4678Z"/><path class="cls-3" d="M15.371,17.4678a.39987.39987,0,0,0-.4.4,1.99855,1.99855,0,0,1-.24707,1.265,1.173,1.173,0,0,1-.57892.355,4.51192,4.51192,0,0,1-1.353.162,4.51123,4.51123,0,0,1-1.353-.162.99078.99078,0,0,1-.709-.58,2.93686,2.93686,0,0,1-.117-1.04.4.4,0,1,0-.8,0,2.69347,2.69347,0,0,0,.425,1.768,1.96855,1.96855,0,0,0,.956.614,5.29615,5.29615,0,0,0,1.598.2,5.29548,5.29548,0,0,0,1.598-.2,1.79962,1.79962,0,0,0,1.207-1.044,3.58808,3.58808,0,0,0,.174-1.338A.39993.39993,0,0,0,15.371,17.4678Z"/><path class="cls-3" d="M37.975,31.24484a.39986.39986,0,0,0-.4.4,1.99359,1.99359,0,0,1-.24707,1.264,1.16578,1.16578,0,0,1-.579.356,5.73133,5.73133,0,0,1-2.706,0,.98864.98864,0,0,1-.709-.58,2.91212,2.91212,0,0,1-.117-1.04.4.4,0,0,0-.8,0,2.69319,2.69319,0,0,0,.425,1.768,1.95571,1.95571,0,0,0,.95593.613,6.45326,6.45326,0,0,0,3.196,0,1.79709,1.79709,0,0,0,1.207-1.044,3.60016,3.60016,0,0,0,.174-1.337A.39991.39991,0,0,0,37.975,31.24484Z"/><path class="cls-3" d="M31.06889,31.24484a.39989.39989,0,0,0-.4.4,1.99341,1.99341,0,0,1-.24695,1.264,1.162,1.162,0,0,1-.579.356,4.51168,4.51168,0,0,1-1.353.162,4.51241,4.51241,0,0,1-1.35309-.162.99109.99109,0,0,1-.709-.58,2.94,2.94,0,0,1-.117-1.04.4.4,0,0,0-.8,0,2.69378,2.69378,0,0,0,.425,1.768,1.96088,1.96088,0,0,0,.95605.613,5.26108,5.26108,0,0,0,1.598.201,5.25718,5.25718,0,0,0,1.598-.201,1.797,1.797,0,0,0,1.207-1.044,3.58,3.58,0,0,0,.174-1.337A.39993.39993,0,0,0,31.06889,31.24484Z"/><path class="cls-3" d="M33.79789,20.24985a6.48578,6.48578,0,0,0,3.196,0,1.79957,1.79957,0,0,0,1.207-1.044,3.60808,3.60808,0,0,0,.174-1.338.4.4,0,1,0-.8,0,1.99842,1.99842,0,0,1-.24707,1.265,1.17287,1.17287,0,0,1-.579.355,5.73133,5.73133,0,0,1-2.706,0,.98856.98856,0,0,1-.709-.58,2.91158,2.91158,0,0,1-.117-1.04.4.4,0,1,0-.8,0,2.69318,2.69318,0,0,0,.425,1.768A1.96381,1.96381,0,0,0,33.79789,20.24985Z"/><path class="cls-3" d="M31.06889,17.4678a.39991.39991,0,0,0-.4.4,1.99824,1.99824,0,0,1-.24695,1.265,1.169,1.169,0,0,1-.579.355,4.51135,4.51135,0,0,1-1.353.162,4.51209,4.51209,0,0,1-1.35309-.162.991.991,0,0,1-.709-.58,2.93941,2.93941,0,0,1-.117-1.04.4.4,0,1,0-.8,0,2.69376,2.69376,0,0,0,.425,1.768,1.969,1.969,0,0,0,.95605.614,5.29588,5.29588,0,0,0,1.598.2,5.292,5.292,0,0,0,1.598-.2,1.79946,1.79946,0,0,0,1.207-1.044,3.58788,3.58788,0,0,0,.174-1.338A.39994.39994,0,0,0,31.06889,17.4678Z"/></svg>