<svg id="Laag_1" data-name="Laag 1" xmlns="http://www.w3.org/2000/svg" viewBox="0 0 48.18898 51.02362"><defs><style>.cls-1{fill:#fff;}.cls-2{fill:#f0919a;}.cls-3{fill:#fad7d7;}</style></defs><title>MyPlugin_setup_roundtable</title><polyline class="cls-1" points="0 0 0 51.023 48.188 51.023 48.188 0 0 0"/><path class="cls-2" d="M37.653,19.85385a1.79743,1.79743,0,0,0-1.04407-1.20605,3.58859,3.58859,0,0,0-1.33795-.175.4.4,0,1,0,0,.8,1.99881,1.99881,0,0,1,1.265.24707,1.16648,1.16648,0,0,1,.355.579,4.51049,4.51049,0,0,1,.162,1.353,4.511,4.511,0,0,1-.162,1.353.98661.98661,0,0,1-.58.709,2.91375,2.91375,0,0,1-1.04.117.4.4,0,1,0,0,.8,2.6818,2.6818,0,0,0,1.768-.425,1.96442,1.96442,0,0,0,.614-.956,5.29131,5.29131,0,0,0,.2-1.598A5.29523,5.29523,0,0,0,37.653,19.85385Z"/><path class="cls-2" d="M30.457,12.00784a1.999,1.999,0,0,1,1.06806-.72,1.17242,1.17242,0,0,1,.66095.158,4.52167,4.52167,0,0,1,1.072.843l.00531.0047A4.55188,4.55188,0,0,1,34.1,13.35983a.98985.98985,0,0,1,.091.912,2.91492,2.91492,0,0,1-.65295.817.4002.4002,0,0,0,.56591.566,2.67989,2.67989,0,0,0,.949-1.55109,1.94724,1.94724,0,0,0-.242-1.109,5.24682,5.24682,0,0,0-.98749-1.27148l.00049-.00055h-.001l-.001-.002-.02411-.022-.00073.00092a5.24636,5.24636,0,0,0-1.24615-.96491,1.79618,1.79618,0,0,0-1.591-.115,3.59205,3.59205,0,0,0-1.069.822.40023.40023,0,0,0,.566.566Zm3.36444-.28643-.20508.20813-.07012.07013.00042-.00055.27478-.27771Z"/><path class="cls-2" d="M25.692,7.89383a5.26,5.26,0,0,0-1.598-.201,5.25921,5.25921,0,0,0-1.598.201,1.797,1.797,0,0,0-1.207,1.044,3.6,3.6,0,0,0-.174,1.337.4.4,0,1,0,.79993,0,1.99858,1.99858,0,0,1,.24707-1.265,1.17286,1.17286,0,0,1,.579-.355,4.51249,4.51249,0,0,1,1.353-.162,4.51291,4.51291,0,0,1,1.353.162.98885.98885,0,0,1,.709.58,2.91214,2.91214,0,0,1,.11694,1.04.4.4,0,1,0,.80005,0,2.68336,2.68336,0,0,0-.42505-1.768A1.95535,1.95535,0,0,0,25.692,7.89383Z"/><path class="cls-2" d="M16.746,10.49283a1.94752,1.94752,0,0,0-1.10894.242,5.28917,5.28917,0,0,0-1.273.988l.00042.00049-.00744.00653.00091.00091h0l.04718.04468.00012.00018-.0473-.04486a5.2772,5.2772,0,0,0-.98089,1.26307,1.8,1.8,0,0,0-.116,1.59106,3.59139,3.59139,0,0,0,.822,1.069l.00092.001a.40027.40027,0,0,0,.5661-.566l-.001-.001a1.98912,1.98912,0,0,1-.719-1.068,1.1696,1.1696,0,0,1,.158-.66,4.51739,4.51739,0,0,1,.842-1.071,4.52029,4.52029,0,0,1,1.072-.843.98971.98971,0,0,1,.91192-.091,2.92771,2.92771,0,0,1,.81708.653.40021.40021,0,1,0,.56592-.566A2.68754,2.68754,0,0,0,16.746,10.49283Z"/><path class="cls-2" d="M13.317,24.03085a.39993.39993,0,0,0-.4-.4,1.99869,1.99869,0,0,1-1.265-.247,1.16818,1.16818,0,0,1-.355-.579,4.50938,4.50938,0,0,1-.162-1.353,4.50885,4.50885,0,0,1,.162-1.353.99063.99063,0,0,1,.58-.709,2.93838,2.93838,0,0,1,1.04-.117.4.4,0,1,0,0-.8,2.69374,2.69374,0,0,0-1.768.425,1.968,1.968,0,0,0-.614.95605,5.2951,5.2951,0,0,0-.2,1.598,5.29117,5.29117,0,0,0,.2,1.598,1.79942,1.79942,0,0,0,1.04394,1.207,3.58856,3.58856,0,0,0,1.33807.174A.39992.39992,0,0,0,13.317,24.03085Z"/><path class="cls-2" d="M17.731,30.89584a1.99206,1.99206,0,0,1-1.069.72,1.16149,1.16149,0,0,1-.66-.15809,4.53483,4.53483,0,0,1-1.072-.842,4.48063,4.48063,0,0,1-.841-1.071.9858.9858,0,0,1-.092-.911,2.90031,2.90031,0,0,1,.65094-.817.39985.39985,0,1,0-.562-.569l-.004.003a2.687,2.687,0,0,0-.948,1.551A1.96738,1.96738,0,0,0,13.377,29.9108a5.31122,5.31122,0,0,0,.988,1.271,5.29344,5.29344,0,0,0,1.272.988,1.79922,1.79922,0,0,0,1.591.114,3.57536,3.57536,0,0,0,1.06891-.822.40019.40019,0,0,0-.56592-.566Z"/><path class="cls-2" d="M26.67289,32.22983a.39993.39993,0,0,0-.4.4,1.99481,1.99481,0,0,1-.24695,1.264,1.16036,1.16036,0,0,1-.579.355,4.50921,4.50921,0,0,1-1.353.163,4.50879,4.50879,0,0,1-1.353-.163.98672.98672,0,0,1-.709-.58,2.9138,2.9138,0,0,1-.11706-1.03906.4.4,0,0,0-.79993,0,2.69277,2.69277,0,0,0,.42493,1.767,1.964,1.964,0,0,0,.95605.614,5.2915,5.2915,0,0,0,1.598.201,5.29229,5.29229,0,0,0,1.598-.201,1.79929,1.79929,0,0,0,1.207-1.044,3.6067,3.6067,0,0,0,.174-1.337A.4.4,0,0,0,26.67289,32.22983Z"/><path class="cls-2" d="M34.10392,27.24985a.39982.39982,0,0,0-.56591.56494,1.9917,1.9917,0,0,1,.71991,1.069,1.16024,1.16024,0,0,1-.158.66,5.71223,5.71223,0,0,1-1.914,1.91394.98779.98779,0,0,1-.91095.091,2.89539,2.89539,0,0,1-.81806-.653.40021.40021,0,0,0-.566.566,2.68915,2.68915,0,0,0,1.551.95,1.963,1.963,0,0,0,1.109-.242,5.32075,5.32075,0,0,0,1.273-.988l-.00049-.00048a5.26439,5.26439,0,0,0,.98749-1.27149,1.79865,1.79865,0,0,0,.115-1.592A3.55824,3.55824,0,0,0,34.10392,27.24985Z"/><circle class="cls-3" cx="24.09398" cy="21.45181" r="10.06299"/></svg>