<svg id="Laag_1" data-name="Laag 1" xmlns="http://www.w3.org/2000/svg" viewBox="0 0 48.18898 51.02362"><defs><style>.cls-1{fill:#fff;}.cls-2{fill:#fad7d7;}.cls-3{fill:#f0919a;}</style></defs><title>MyPlugin_setup_square</title><polyline class="cls-1" points="0 0 0 51.023 48.189 51.023 48.189 0 0 0"/><path class="cls-2" d="M23.017,17.72482a1.40868,1.40868,0,0,0-.789-.222h-3.173a1.61877,1.61877,0,0,0-.67505.166,1.2711,1.2711,0,0,0-.495.431,1.40092,1.40092,0,0,0-.222.795v10.079a1.602,1.602,0,0,0,.166.675,1.26717,1.26717,0,0,0,.43.495,1.4049,1.4049,0,0,0,.788.222h3.175a1.58374,1.58374,0,0,0,.674-.166,1.27481,1.27481,0,0,0,.496-.43,1.41918,1.41918,0,0,0,.222-.796v-10.079a1.63472,1.63472,0,0,0-.167-.67493A1.26645,1.26645,0,0,0,23.017,17.72482Z"/><path class="cls-2" d="M29.929,17.72482a1.40637,1.40637,0,0,0-.789-.222h-3.173a1.619,1.619,0,0,0-.675.166,1.2706,1.2706,0,0,0-.49493.431,1.40811,1.40811,0,0,0-.222.795v10.079a1.60019,1.60019,0,0,0,.166.675,1.2753,1.2753,0,0,0,.43.495,1.40742,1.40742,0,0,0,.788.222h3.175a1.58958,1.58958,0,0,0,.675-.166,1.27335,1.27335,0,0,0,.49494-.43,1.42007,1.42007,0,0,0,.222-.796v-10.079a1.626,1.626,0,0,0-.166-.67493A1.27792,1.27792,0,0,0,29.929,17.72482Z"/><path class="cls-2" d="M30.36006,11.31479a1.27862,1.27862,0,0,0-.431-.495,1.4033,1.4033,0,0,0-.788-.223h-10.086a1.61163,1.61163,0,0,0-.67505.167,1.26762,1.26762,0,0,0-.495.43,1.41116,1.41116,0,0,0-.223.795v3.167a1.62891,1.62891,0,0,0,.167.67505,1.26765,1.26765,0,0,0,.43.495,1.40253,1.40253,0,0,0,.788.222h10.087a1.60792,1.60792,0,0,0,.675-.166,1.2738,1.2738,0,0,0,.49494-.43,1.41193,1.41193,0,0,0,.222-.796v-3.167A1.602,1.602,0,0,0,30.36006,11.31479Z"/><path class="cls-3" d="M15.085,11.64383a1.99542,1.99542,0,0,1,1.264-.247.4.4,0,1,0,0-.8,3.58639,3.58639,0,0,0-1.337.175,1.79754,1.79754,0,0,0-1.044,1.206,5.26137,5.26137,0,0,0-.201,1.598,5.26092,5.26092,0,0,0,.201,1.598,1.95522,1.95522,0,0,0,.613.956,2.68317,2.68317,0,0,0,1.768.425.4.4,0,1,0,0-.8,2.91506,2.91506,0,0,1-1.04-.11694.98885.98885,0,0,1-.58-.709,4.54688,4.54688,0,0,1-.162-1.353,4.54741,4.54741,0,0,1,.162-1.353A1.1669,1.1669,0,0,1,15.085,11.64383Z"/><path class="cls-3" d="M15.085,18.54984a1.99529,1.99529,0,0,1,1.264-.247.4.4,0,1,0,0-.8,3.60641,3.60641,0,0,0-1.337.174,1.79957,1.79957,0,0,0-1.044,1.207,5.26108,5.26108,0,0,0-.201,1.598,5.26083,5.26083,0,0,0,.201,1.598,1.95525,1.95525,0,0,0,.613.956,2.6954,2.6954,0,0,0,1.768.42505.4.4,0,1,0,0-.80005,2.9135,2.9135,0,0,1-1.04-.117.98856.98856,0,0,1-.58-.709,4.54729,4.54729,0,0,1-.162-1.353,4.54733,4.54733,0,0,1,.162-1.353A1.16686,1.16686,0,0,1,15.085,18.54984Z"/><path class="cls-3" d="M15.085,25.45584a1.99542,1.99542,0,0,1,1.264-.247.4.4,0,1,0,0-.8,3.58516,3.58516,0,0,0-1.337.17395,1.79962,1.79962,0,0,0-1.044,1.207,5.25691,5.25691,0,0,0-.201,1.598,5.26092,5.26092,0,0,0,.201,1.598,1.96,1.96,0,0,0,.613.956,2.69488,2.69488,0,0,0,1.768.425.4.4,0,1,0,0-.8,2.9358,2.9358,0,0,1-1.04-.117.99076.99076,0,0,1-.58-.709,4.54717,4.54717,0,0,1-.162-1.353,4.54746,4.54746,0,0,1,.162-1.353A1.16193,1.16193,0,0,1,15.085,25.45584Z"/><path class="cls-3" d="M32.879,15.63785a2.91485,2.91485,0,0,1-1.04.11694.4.4,0,0,0,0,.8,2.68184,2.68184,0,0,0,1.768-.425,1.96288,1.96288,0,0,0,.614-.956,5.29305,5.29305,0,0,0,.20007-1.598,5.29351,5.29351,0,0,0-.20007-1.598,1.79748,1.79748,0,0,0-1.04394-1.206,3.58926,3.58926,0,0,0-1.338-.175.4.4,0,1,0,0,.8,1.99831,1.99831,0,0,1,1.265.247,1.17316,1.17316,0,0,1,.355.579,4.51167,4.51167,0,0,1,.162,1.353,4.51115,4.51115,0,0,1-.162,1.353A.98663.98663,0,0,1,32.879,15.63785Z"/><path class="cls-3" d="M33.17708,17.67679a3.60929,3.60929,0,0,0-1.338-.174.4.4,0,1,0,0,.8,1.99818,1.99818,0,0,1,1.265.247,1.17311,1.17311,0,0,1,.355.579,4.5116,4.5116,0,0,1,.162,1.353,4.51155,4.51155,0,0,1-.162,1.353.98635.98635,0,0,1-.58.709,2.91328,2.91328,0,0,1-1.04.117.4.4,0,0,0,0,.80005,2.688,2.688,0,0,0,1.768-.42505,1.96292,1.96292,0,0,0,.614-.956,5.293,5.293,0,0,0,.20007-1.598,5.29321,5.29321,0,0,0-.20007-1.598A1.79952,1.79952,0,0,0,33.17708,17.67679Z"/><path class="cls-3" d="M33.17708,24.58279a3.588,3.588,0,0,0-1.338-.17395.4.4,0,1,0,0,.8,1.99831,1.99831,0,0,1,1.265.247,1.16813,1.16813,0,0,1,.355.579,4.51172,4.51172,0,0,1,.162,1.353,4.51143,4.51143,0,0,1-.162,1.353.98853.98853,0,0,1-.58.709,2.93558,2.93558,0,0,1-1.04.117.4.4,0,1,0,0,.8,2.69353,2.69353,0,0,0,1.768-.425,1.96771,1.96771,0,0,0,.614-.956,5.29305,5.29305,0,0,0,.20007-1.598,5.29312,5.29312,0,0,0-.20007-1.598A1.79956,1.79956,0,0,0,33.17708,24.58279Z"/><path class="cls-3" d="M22.23909,6.90884a5.28769,5.28769,0,0,0-1.59809-.201,5.292,5.292,0,0,0-1.598.201,1.7976,1.7976,0,0,0-1.206,1.044,3.58672,3.58672,0,0,0-.175,1.337.4.4,0,0,0,.8,0,1.99506,1.99506,0,0,1,.247-1.264,1.15868,1.15868,0,0,1,.579-.355,4.50933,4.50933,0,0,1,1.353-.163,4.5048,4.5048,0,0,1,1.35309.163.98661.98661,0,0,1,.709.58,2.90955,2.90955,0,0,1,.11694,1.039.4.4,0,0,0,.8,0,2.68053,2.68053,0,0,0-.425-1.767A1.96353,1.96353,0,0,0,22.23909,6.90884Z"/><path class="cls-3" d="M29.14509,6.90884a5.29259,5.29259,0,0,0-1.59808-.201,5.292,5.292,0,0,0-1.598.201,1.79764,1.79764,0,0,0-1.206,1.044,3.58692,3.58692,0,0,0-.175,1.337.4.4,0,0,0,.8,0,1.99519,1.99519,0,0,1,.247-1.264,1.15868,1.15868,0,0,1,.579-.355,4.50917,4.50917,0,0,1,1.353-.163,4.509,4.509,0,0,1,1.353.163.98658.98658,0,0,1,.709.58,2.91066,2.91066,0,0,1,.117,1.039.4.4,0,0,0,.8,0,2.68052,2.68052,0,0,0-.425-1.767A1.96351,1.96351,0,0,0,29.14509,6.90884Z"/><path class="cls-3" d="M23.22,31.2728a.40055.40055,0,0,0-.4.4,2.91234,2.91234,0,0,1-.11694,1.04.98664.98664,0,0,1-.709.58,4.5088,4.5088,0,0,1-1.35309.16205,4.51332,4.51332,0,0,1-1.353-.16205,1.15915,1.15915,0,0,1-.579-.355,1.99848,1.99848,0,0,1-.247-1.265.4.4,0,1,0-.8,0,3.589,3.589,0,0,0,.175,1.338,1.79753,1.79753,0,0,0,1.206,1.044,5.29567,5.29567,0,0,0,1.598.2,5.29136,5.29136,0,0,0,1.59809-.2,1.96352,1.96352,0,0,0,.95593-.614,2.68217,2.68217,0,0,0,.425-1.768A.40055.40055,0,0,0,23.22,31.2728Z"/><path class="cls-3" d="M30.12605,31.2728a.40054.40054,0,0,0-.4.4,2.91345,2.91345,0,0,1-.117,1.04.98661.98661,0,0,1-.709.58,4.513,4.513,0,0,1-1.353.16205,4.51316,4.51316,0,0,1-1.353-.16205,1.15915,1.15915,0,0,1-.579-.355,1.99861,1.99861,0,0,1-.247-1.265.4.4,0,1,0-.8,0,3.58922,3.58922,0,0,0,.175,1.338,1.79757,1.79757,0,0,0,1.206,1.044,5.29567,5.29567,0,0,0,1.598.2,5.29626,5.29626,0,0,0,1.59808-.2,1.9635,1.9635,0,0,0,.95594-.614,2.68216,2.68216,0,0,0,.425-1.768A.40054.40054,0,0,0,30.12605,31.2728Z"/></svg>