<svg id="Laag_1" data-name="Laag 1" xmlns="http://www.w3.org/2000/svg" viewBox="0 0 48.18898 51.02362"><defs><style>.cls-1{fill:#fff;}.cls-2{fill:#f0919a;}</style></defs><title>MyPlugin_setup_persons</title><polygon class="cls-1" points="0 0 0 51.024 48.189 51.024 48.189 0 0 0 0 0"/><path class="cls-2" d="M11.5509,27.8808a2.2226,2.2226,0,0,1,.609-1.131c1.07508-1.228,2.58808-.693,2.69507-1.997a2.53539,2.53539,0,0,0-.038-.577,3.2348,3.2348,0,0,1-1.292-.56.26125.26125,0,0,1-.094-.337c.417-.946.279-1.242.279-2.649a1.70565,1.70565,0,0,1,1.751-1.806,1.17106,1.17106,0,0,1,.765-.27,1.63382,1.63382,0,0,1,1.548,1.775,4.95409,4.95409,0,0,0,.541,3.075c.088.156.093.253-.066.326a5.22931,5.22931,0,0,1-1.622.504,2.4681,2.4681,0,0,0-.029.519c.0799.97.955.932,1.83289,1.355a9.1928,9.1928,0,0,1,.98511-.381,4.72275,4.72275,0,0,0-1.395-.681c-.20508-.071-.338-.119-.423-.158a6.92947,6.92947,0,0,0,.93689-.365l.059-.027a1.01526,1.01526,0,0,0,.57306-.615,1.083,1.083,0,0,0-.121-.89,3.35991,3.35991,0,0,1-.44-2.12006c.003-.17.0069-.349.0069-.542a2.47975,2.47975,0,0,0-2.38691-2.616,2.05655,2.05655,0,0,0-1.046.282,2.53855,2.53855,0,0,0-2.309,2.635c0,.329.007.599.01294.831a2.6272,2.6272,0,0,1-.221,1.478,1.105,1.105,0,0,0,.359,1.34995,3.82311,3.82311,0,0,0,.96.519,1.56309,1.56309,0,0,1-.533.228,4.05087,4.05087,0,0,0-1.919,1.159,2.99751,2.99751,0,0,0-.815,1.617l-.075.91h4.871a6.22635,6.22635,0,0,1,.59692-.841Z"/><path class="cls-2" d="M37.475,27.8118a2.99765,2.99765,0,0,0-.815-1.617,4.06519,4.06519,0,0,0-1.9-1.149c-.20593-.071-.338-.119-.423-.158a7.0496,7.0496,0,0,0,.936-.365l.06-.027a1.01851,1.01851,0,0,0,.573-.615,1.08629,1.08629,0,0,0-.1211-.89,3.34874,3.34874,0,0,1-.43994-2.12006c.003-.17.006-.349.006-.542a2.4792,2.4792,0,0,0-2.387-2.616,2.05277,2.05277,0,0,0-1.045.282,2.53864,2.53864,0,0,0-2.31,2.635c0,.329.008.599.014.831a2.63128,2.63128,0,0,1-.221,1.478,1.10581,1.10581,0,0,0,.358,1.34995,3.83966,3.83966,0,0,0,.9599.519,1.55012,1.55012,0,0,1-.5329.228,4.65126,4.65126,0,0,0-1.422.695,9.77446,9.77446,0,0,1,.98194.378c.888-.434,1.76605-.374,1.847-1.356a2.588,2.588,0,0,0-.03808-.577,3.2364,3.2364,0,0,1-1.292-.56.2617.2617,0,0,1-.095-.337c.418-.946.27905-1.242.27905-2.649a1.70616,1.70616,0,0,1,1.751-1.806,1.1748,1.1748,0,0,1,.765-.27,1.63382,1.63382,0,0,1,1.548,1.775,4.94851,4.94851,0,0,0,.542,3.075c.087.156.092.253-.067.326a5.21928,5.21928,0,0,1-1.621.504,2.40781,2.40781,0,0,0-.029.519c.106,1.297,1.636.79,2.692,1.997a2.21125,2.21125,0,0,1,.609,1.131H32.08191a6.22461,6.22461,0,0,1,.59711.841H37.55l-.075-.91Z"/><path class="cls-2" d="M31.07,28.0148a6.80716,6.80716,0,0,0-3.11-1.657c-1.217-.371-1.423-.511-1.469-1.002a2.66586,2.66586,0,0,1,.04309-.60105,3.60224,3.60224,0,0,0,.633-1.699l.013-.073a2.68362,2.68362,0,0,0,.736-2.183,1.49336,1.49336,0,0,0-.23505-.72,5.98372,5.98372,0,0,0,.009-2.109,3.24734,3.24734,0,0,0-3.243-2.463c-1.349,0-3.535.783-3.94311,2.463a5.98259,5.98259,0,0,0,.01,2.109,1.47236,1.47236,0,0,0-.23493.72,2.66825,2.66825,0,0,0,.743,2.189,4.44935,4.44935,0,0,0,.64,1.775,2.63494,2.63494,0,0,1,.041.59205c-.04608.49-.248.629-1.44207.987A6.79074,6.79074,0,0,0,17.12,28.0148a4.10478,4.10478,0,0,0-1.328,2.311l-.085.919H32.483l-.085-.919A4.10215,4.10215,0,0,0,31.07,28.0148Zm-14.442,2.389a3.38154,3.38154,0,0,1,1.08905-1.798c1.923-1.951,4.63-1.1,4.821-3.173a3.96058,3.96058,0,0,0-.092-1.036,4.2407,4.2407,0,0,1-.683-1.965c-.53705-.10894-.685-1.091-.64807-1.566.032-.411.24506-.438.30109-.438h.014a6.48487,6.48487,0,0,1-.111-2.258c.284-1.169,1.998-1.821,3.128-1.821a2.3993,2.3993,0,0,1,2.428,1.821,6.48643,6.48643,0,0,1-.111,2.258h.014c.056,0,.26905.027.301.438.037.475-.111,1.457-.648,1.566a3.73132,3.73132,0,0,1-.68195,1.965,3.94526,3.94526,0,0,0-.09308,1.036c.19,2.062,2.92707,1.256,4.81708,3.173a3.38163,3.38163,0,0,1,1.089,1.798Z"/></svg>