<svg id="Laag_1" data-name="Laag 1" xmlns="http://www.w3.org/2000/svg" viewBox="0 0 48.18898 51.02362"><defs><style>.cls-1{fill:#fff;}.cls-2{fill:#f0919a;}</style></defs><title>MyPlugin_setup_theater</title><polygon class="cls-1" points="0 0 0 51.024 48.189 51.024 48.189 0 0 0 0 0"/><path class="cls-2" d="M22.034,19.0538a3.34128,3.34128,0,0,1-.12-1.124.40006.40006,0,0,0-.80011,0,2.9629,2.9629,0,0,0,.41809,1.856,1.9533,1.9533,0,0,0,.95594.653,5.00783,5.00783,0,0,0,1.60608.21405,5.00675,5.00675,0,0,0,1.606-.21405,1.83335,1.83335,0,0,0,1.203-1.103,4.00792,4.00792,0,0,0,.17108-1.406.4.4,0,0,0-.8,0,2.27547,2.27547,0,0,1-.255,1.372,1.15572,1.15572,0,0,1-.57806.38,4.25457,4.25457,0,0,1-1.34692.171,4.25588,4.25588,0,0,1-1.34711-.171A1.01891,1.01891,0,0,1,22.034,19.0538Z"/><path class="cls-2" d="M15.452,19.0538a3.34419,3.34419,0,0,1-.12006-1.124.4.4,0,0,0-.79993,0,2.96155,2.96155,0,0,0,.418,1.856,1.95376,1.95376,0,0,0,.956.653,5.00741,5.00741,0,0,0,1.606.21405,5.00743,5.00743,0,0,0,1.606-.21405,1.83375,1.83375,0,0,0,1.203-1.103,4.00917,4.00917,0,0,0,.171-1.406.4.4,0,0,0-.8,0,2.275,2.275,0,0,1-.255,1.372,1.15522,1.15522,0,0,1-.578.38,4.25529,4.25529,0,0,1-1.347.171,4.25526,4.25526,0,0,1-1.347-.171A1.01876,1.01876,0,0,1,15.452,19.0538Z"/><path class="cls-2" d="M35.198,19.0538a3.34445,3.34445,0,0,1-.12006-1.124.4.4,0,0,0-.8,0,2.96272,2.96272,0,0,0,.418,1.856,1.954,1.954,0,0,0,.95606.653,6.13176,6.13176,0,0,0,3.212,0,1.83359,1.83359,0,0,0,1.203-1.103,4.01064,4.01064,0,0,0,.171-1.406.4.4,0,0,0-.8,0,2.27555,2.27555,0,0,1-.255,1.372,1.16043,1.16043,0,0,1-.578.38,5.3903,5.3903,0,0,1-2.694,0A1.0188,1.0188,0,0,1,35.198,19.0538Z"/><path class="cls-2" d="M9.324,20.43881a5.0069,5.0069,0,0,0,1.606.21405,5.00678,5.00678,0,0,0,1.606-.21405,1.83384,1.83384,0,0,0,1.203-1.103,4.009,4.009,0,0,0,.171-1.406.4.4,0,0,0-.80005,0,2.275,2.275,0,0,1-.255,1.372,1.15528,1.15528,0,0,1-.57794.38,4.25529,4.25529,0,0,1-1.347.171,4.25569,4.25569,0,0,1-1.347-.171,1.01878,1.01878,0,0,1-.71295-.628,3.34283,3.34283,0,0,1-.12-1.124.4.4,0,0,0-.80005,0,2.96245,2.96245,0,0,0,.418,1.856A1.95349,1.95349,0,0,0,9.324,20.43881Z"/><path class="cls-2" d="M28.616,19.0538a3.34283,3.34283,0,0,1-.12-1.124.4.4,0,0,0-.8,0,2.96193,2.96193,0,0,0,.418,1.856,1.954,1.954,0,0,0,.956.653,6.132,6.132,0,0,0,3.212,0,1.834,1.834,0,0,0,1.203-1.103,4.00769,4.00769,0,0,0,.1709-1.406.4.4,0,0,0-.8,0,2.27458,2.27458,0,0,1-.255,1.372,1.15472,1.15472,0,0,1-.57794.38,5.39006,5.39006,0,0,1-2.694,0A1.01891,1.01891,0,0,1,28.616,19.0538Z"/><path class="cls-2" d="M26.67393,26.97183a.39986.39986,0,0,0-.4.4,2.27915,2.27915,0,0,1-.255,1.373,1.14929,1.14929,0,0,1-.57806.379,4.25135,4.25135,0,0,1-1.34692.172,4.25265,4.25265,0,0,1-1.34711-.172,1.01785,1.01785,0,0,1-.71289-.627,3.35079,3.35079,0,0,1-.12-1.125.40006.40006,0,0,0-.80011,0,2.96615,2.96615,0,0,0,.41809,1.85705,1.95266,1.95266,0,0,0,.95594.652,5.007,5.007,0,0,0,1.60608.215,5.006,5.006,0,0,0,1.606-.215,1.82989,1.82989,0,0,0,1.203-1.102,4.01326,4.01326,0,0,0,.17108-1.407A.39992.39992,0,0,0,26.67393,26.97183Z"/><path class="cls-2" d="M20.092,26.97183a.39991.39991,0,0,0-.4.4,2.27871,2.27871,0,0,1-.255,1.373,1.1488,1.1488,0,0,1-.578.379,4.25207,4.25207,0,0,1-1.347.172,4.252,4.252,0,0,1-1.347-.172,1.0177,1.0177,0,0,1-.713-.627,3.35372,3.35372,0,0,1-.12006-1.125.4.4,0,1,0-.79993,0,2.9648,2.9648,0,0,0,.418,1.85705,1.95312,1.95312,0,0,0,.956.652,5.00661,5.00661,0,0,0,1.606.215,5.00664,5.00664,0,0,0,1.606-.215,1.83029,1.83029,0,0,0,1.203-1.102,4.01451,4.01451,0,0,0,.171-1.407A.39986.39986,0,0,0,20.092,26.97183Z"/><path class="cls-2" d="M39.83793,26.97183a.39986.39986,0,0,0-.4.4,2.27924,2.27924,0,0,1-.255,1.373,1.15394,1.15394,0,0,1-.578.379,5.36056,5.36056,0,0,1-2.694,0,1.01773,1.01773,0,0,1-.71295-.627,3.354,3.354,0,0,1-.12006-1.125.4.4,0,0,0-.8,0,2.966,2.966,0,0,0,.418,1.85705,1.9533,1.9533,0,0,0,.95606.652,6.10643,6.10643,0,0,0,3.212,0,1.83013,1.83013,0,0,0,1.203-1.102,4.016,4.016,0,0,0,.171-1.407A.39992.39992,0,0,0,39.83793,26.97183Z"/><path class="cls-2" d="M13.50987,26.97183a.39993.39993,0,0,0-.4.4,2.27871,2.27871,0,0,1-.255,1.373,1.14886,1.14886,0,0,1-.57794.379,4.25207,4.25207,0,0,1-1.347.172,4.25247,4.25247,0,0,1-1.347-.172,1.01771,1.01771,0,0,1-.71295-.627,3.35235,3.35235,0,0,1-.12-1.125.4.4,0,0,0-.80005,0,2.96571,2.96571,0,0,0,.418,1.85705,1.95284,1.95284,0,0,0,.956.652,5.00611,5.00611,0,0,0,1.606.215,5.006,5.006,0,0,0,1.606-.215,1.83039,1.83039,0,0,0,1.203-1.102,4.01436,4.01436,0,0,0,.171-1.407A.4.4,0,0,0,13.50987,26.97183Z"/><path class="cls-2" d="M33.2559,26.97183a.4.4,0,0,0-.4.4,2.27827,2.27827,0,0,1-.255,1.373,1.1483,1.1483,0,0,1-.57794.379,5.36033,5.36033,0,0,1-2.694,0,1.01784,1.01784,0,0,1-.713-.627,3.35235,3.35235,0,0,1-.12-1.125.4.4,0,0,0-.8,0,2.96518,2.96518,0,0,0,.418,1.85705,1.9534,1.9534,0,0,0,.956.652,6.10666,6.10666,0,0,0,3.212,0,1.83056,1.83056,0,0,0,1.203-1.102,4.013,4.013,0,0,0,.1709-1.407A.39983.39983,0,0,0,33.2559,26.97183Z"/><path class="cls-2" d="M25.779,15.71683a4.97853,4.97853,0,0,0,1.6059.215,4.97972,4.97972,0,0,0,1.60608-.215,1.83027,1.83027,0,0,0,1.203-1.102,4.01678,4.01678,0,0,0,.171-1.407.4.4,0,1,0-.8,0,2.28718,2.28718,0,0,1-.254,1.373,1.15788,1.15788,0,0,1-.579.379,4.22451,4.22451,0,0,1-1.34711.172,4.2237,4.2237,0,0,1-1.34692-.172,1.01809,1.01809,0,0,1-.713-.627,3.35589,3.35589,0,0,1-.12-1.125.4.4,0,1,0-.79993,0,2.9645,2.9645,0,0,0,.418,1.85693A1.95229,1.95229,0,0,0,25.779,15.71683Z"/><path class="cls-2" d="M19.19694,15.71683a4.97932,4.97932,0,0,0,1.606.215,4.97932,4.97932,0,0,0,1.606-.215,1.83043,1.83043,0,0,0,1.203-1.102,4.01531,4.01531,0,0,0,.171-1.407.4.4,0,1,0-.8,0,2.27921,2.27921,0,0,1-.25494,1.373,1.14954,1.14954,0,0,1-.578.379,4.22393,4.22393,0,0,1-1.347.172,4.22385,4.22385,0,0,1-1.347-.172,1.018,1.018,0,0,1-.713-.627,3.353,3.353,0,0,1-.12-1.125.4.4,0,1,0-.8,0,2.96484,2.96484,0,0,0,.418,1.85693A1.95289,1.95289,0,0,0,19.19694,15.71683Z"/><path class="cls-2" d="M12.615,15.71683a4.97867,4.97867,0,0,0,1.606.215,4.97907,4.97907,0,0,0,1.606-.215,1.83006,1.83006,0,0,0,1.20294-1.102,4.01289,4.01289,0,0,0,.17108-1.407.4.4,0,1,0-.8,0,2.28762,2.28762,0,0,1-.254,1.373,1.158,1.158,0,0,1-.579.379,4.22385,4.22385,0,0,1-1.347.172,4.22408,4.22408,0,0,1-1.347-.172,1.01823,1.01823,0,0,1-.71295-.627,3.353,3.353,0,0,1-.12-1.125.4.4,0,1,0-.8,0,2.964,2.964,0,0,0,.418,1.85693A1.95225,1.95225,0,0,0,12.615,15.71683Z"/><path class="cls-2" d="M32.36088,15.71683a6.10719,6.10719,0,0,0,3.2121,0,1.83,1.83,0,0,0,1.20294-1.102,4.014,4.014,0,0,0,.171-1.407.4.4,0,1,0-.8,0,2.27909,2.27909,0,0,1-.255,1.373,1.14971,1.14971,0,0,1-.57806.379,5.36033,5.36033,0,0,1-2.694,0,1.0181,1.0181,0,0,1-.713-.627,3.35166,3.35166,0,0,1-.12-1.125.4.4,0,1,0-.8,0,2.9649,2.9649,0,0,0,.418,1.85693A1.95271,1.95271,0,0,0,32.36088,15.71683Z"/><path class="cls-2" d="M30.194,24.05783a4.01944,4.01944,0,0,0,.171-1.407.4.4,0,1,0-.8,0,2.28379,2.28379,0,0,1-.254,1.372,1.15216,1.15216,0,0,1-.579.38,4.25273,4.25273,0,0,1-1.34711.17194,4.25192,4.25192,0,0,1-1.34692-.17194,1.0201,1.0201,0,0,1-.713-.627,3.35589,3.35589,0,0,1-.12-1.125.4.4,0,1,0-.79993,0,2.96606,2.96606,0,0,0,.418,1.857,1.959,1.959,0,0,0,.956.652,5.03473,5.03473,0,0,0,1.6059.215,5.03593,5.03593,0,0,0,1.60608-.215A1.83489,1.83489,0,0,0,30.194,24.05783Z"/><path class="cls-2" d="M23.612,24.05783a4.018,4.018,0,0,0,.171-1.407.4.4,0,1,0-.8,0,2.27584,2.27584,0,0,1-.25494,1.372,1.14391,1.14391,0,0,1-.578.38,4.25214,4.25214,0,0,1-1.347.17194,4.25207,4.25207,0,0,1-1.347-.17194,1.02,1.02,0,0,1-.713-.627,3.353,3.353,0,0,1-.12-1.125.4.4,0,1,0-.8,0,2.9664,2.9664,0,0,0,.418,1.857,1.95956,1.95956,0,0,0,.956.652,5.03553,5.03553,0,0,0,1.606.215,5.03553,5.03553,0,0,0,1.606-.215A1.835,1.835,0,0,0,23.612,24.05783Z"/><path class="cls-2" d="M17.02989,24.05783a4.01554,4.01554,0,0,0,.17108-1.407.4.4,0,1,0-.8,0,2.28423,2.28423,0,0,1-.254,1.372,1.15233,1.15233,0,0,1-.579.38,4.25207,4.25207,0,0,1-1.347.17194,4.2523,4.2523,0,0,1-1.347-.17194,1.02024,1.02024,0,0,1-.71295-.627,3.353,3.353,0,0,1-.12-1.125.4.4,0,1,0-.8,0,2.9656,2.9656,0,0,0,.418,1.857,1.95891,1.95891,0,0,0,.956.652,5.03487,5.03487,0,0,0,1.606.215,5.03527,5.03527,0,0,0,1.606-.215A1.83467,1.83467,0,0,0,17.02989,24.05783Z"/><path class="cls-2" d="M36.77592,24.05783a4.01663,4.01663,0,0,0,.171-1.407.4.4,0,1,0-.8,0,2.27571,2.27571,0,0,1-.255,1.372,1.14408,1.14408,0,0,1-.57806.38,5.36214,5.36214,0,0,1-2.694,0,1.02011,1.02011,0,0,1-.713-.627,3.35166,3.35166,0,0,1-.12-1.125.4.4,0,1,0-.8,0,2.96646,2.96646,0,0,0,.418,1.857,1.95938,1.95938,0,0,0,.95593.652,6.10527,6.10527,0,0,0,3.2121,0A1.83465,1.83465,0,0,0,36.77592,24.05783Z"/></svg>