<svg id="Laag_1" data-name="Laag 1" xmlns="http://www.w3.org/2000/svg" viewBox="0 0 48.18898 51.02362"><defs><style>.cls-1{fill:#fff;}.cls-2{fill:#fad7d7;}.cls-3{fill:#f0919a;}</style></defs><title>MyPlugin_setup_carre</title><polyline class="cls-1" points="0 0 0 51.023 48.189 51.023 48.189 0 0 0"/><path class="cls-2" d="M26.13908,24.54685a1.6305,1.6305,0,0,0-.675-.16706h-10.085a1.41219,1.41219,0,0,0-.79.22309,1.27422,1.27422,0,0,0-.43.49493,1.60064,1.60064,0,0,0-.166.675v3.16607a1.41145,1.41145,0,0,0,.222.796,1.26632,1.26632,0,0,0,.495.43,1.58524,1.58524,0,0,0,.675.166h10.086a1.40849,1.40849,0,0,0,.789-.222,1.27251,1.27251,0,0,0,.43-.494,1.608,1.608,0,0,0,.166-.676V25.7728a1.41139,1.41139,0,0,0-.222-.796A1.26623,1.26623,0,0,0,26.13908,24.54685Z"/><path class="cls-2" d="M33.54,11.20084a1.27042,1.27042,0,0,0-.495-.431,1.62361,1.62361,0,0,0-.675-.166h-10.087a1.40791,1.40791,0,0,0-.788.222,1.27477,1.27477,0,0,0-.43.495,1.60588,1.60588,0,0,0-.166.675v3.167a1.40769,1.40769,0,0,0,.222.795,1.26943,1.26943,0,0,0,.49493.431,1.62078,1.62078,0,0,0,.67505.166H32.376a1.41164,1.41164,0,0,0,.79-.222,1.27386,1.27386,0,0,0,.43-.495,1.60769,1.60769,0,0,0,.166-.675v-3.167A1.406,1.406,0,0,0,33.54,11.20084Z"/><path class="cls-2" d="M33.166,17.68979a1.42046,1.42046,0,0,0-.79-.222H29.203a1.6349,1.6349,0,0,0-.67492.167,1.26792,1.26792,0,0,0-.49506.43,1.41107,1.41107,0,0,0-.222.795v10.08a1.60778,1.60778,0,0,0,.166.67505,1.277,1.277,0,0,0,.431.495,1.41429,1.41429,0,0,0,.789.22205H32.37a1.61625,1.61625,0,0,0,.675-.16705,1.26714,1.26714,0,0,0,.495-.43,1.41088,1.41088,0,0,0,.222-.795v-10.08a1.60766,1.60766,0,0,0-.166-.675A1.28857,1.28857,0,0,0,33.166,17.68979Z"/><path class="cls-2" d="M14.59007,23.24484a1.40188,1.40188,0,0,0,.787.222h3.175a1.607,1.607,0,0,0,.675-.166,1.2749,1.2749,0,0,0,.495-.43,1.4124,1.4124,0,0,0,.222-.796v-10.079a1.626,1.626,0,0,0-.166-.675,1.26942,1.26942,0,0,0-.431-.495,1.40666,1.40666,0,0,0-.78906-.222h-3.173a1.60508,1.60508,0,0,0-.675.166,1.2696,1.2696,0,0,0-.495.431,1.40559,1.40559,0,0,0-.222.795v10.079a1.60085,1.60085,0,0,0,.166.675A1.26994,1.26994,0,0,0,14.59007,23.24484Z"/><path class="cls-3" d="M33.362,31.24484a.39991.39991,0,0,0-.4.4,1.99376,1.99376,0,0,1-.247,1.264,1.16115,1.16115,0,0,1-.579.356,5.73133,5.73133,0,0,1-2.706,0,.99081.99081,0,0,1-.70905-.58,2.93857,2.93857,0,0,1-.117-1.04.4.4,0,0,0-.8,0,2.69384,2.69384,0,0,0,.425,1.768,1.96027,1.96027,0,0,0,.95605.613,6.453,6.453,0,0,0,3.196,0,1.79685,1.79685,0,0,0,1.207-1.044,3.58,3.58,0,0,0,.174-1.337A.3999.3999,0,0,0,33.362,31.24484Z"/><path class="cls-3" d="M26.4561,31.24484a.39992.39992,0,0,0-.4.4,1.98727,1.98727,0,0,1-.247,1.264,1.16232,1.16232,0,0,1-.578.356,4.51866,4.51866,0,0,1-1.354.162,4.51061,4.51061,0,0,1-1.353-.162.99081.99081,0,0,1-.709-.58,2.91779,2.91779,0,0,1-.116-1.04.4.4,0,0,0-.8,0,2.68168,2.68168,0,0,0,.425,1.768,1.9522,1.9522,0,0,0,.955.613,5.26056,5.26056,0,0,0,1.598.201,5.256,5.256,0,0,0,1.598-.201,1.79683,1.79683,0,0,0,1.207-1.044,3.58,3.58,0,0,0,.174-1.337A.3999.3999,0,0,0,26.4561,31.24484Z"/><path class="cls-3" d="M19.55009,31.24484a.39991.39991,0,0,0-.4.4,1.98809,1.98809,0,0,1-.246,1.264,1.16634,1.16634,0,0,1-.579.356,4.51553,4.51553,0,0,1-1.35346.162,4.5157,4.5157,0,0,1-1.35352-.162.98871.98871,0,0,1-.708-.58,2.89134,2.89134,0,0,1-.117-1.04.4.4,0,0,0-.8,0,2.68173,2.68173,0,0,0,.425,1.768,1.9508,1.9508,0,0,0,.956.613,5.25656,5.25656,0,0,0,1.597.20093v.00006h.001v-.00006a5.26354,5.26354,0,0,0,1.598-.20093,1.79723,1.79723,0,0,0,1.206-1.044,3.58,3.58,0,0,0,.174-1.337A.3999.3999,0,0,0,19.55009,31.24484Z"/><path class="cls-3" d="M36.094,15.62381a2.92977,2.92977,0,0,1-1.039.117.4.4,0,1,0,0,.8,2.69089,2.69089,0,0,0,1.767-.425,1.95444,1.95444,0,0,0,.614-.956,5.29238,5.29238,0,0,0,.201-1.598,5.29191,5.29191,0,0,0-.201-1.598,1.7993,1.7993,0,0,0-1.044-1.207,3.60625,3.60625,0,0,0-1.337-.17395.4.4,0,1,0,0,.8,1.99522,1.99522,0,0,1,1.264.247,1.15974,1.15974,0,0,1,.355.579,4.50917,4.50917,0,0,1,.163,1.353,4.50933,4.50933,0,0,1-.163,1.353A.98659.98659,0,0,1,36.094,15.62381Z"/><path class="cls-3" d="M36.392,17.66281a3.5848,3.5848,0,0,0-1.337-.174.4.4,0,1,0,0,.79993,1.99544,1.99544,0,0,1,1.264.247,1.15512,1.15512,0,0,1,.355.579,4.50415,4.50415,0,0,1,.163,1.353,4.50924,4.50924,0,0,1-.163,1.353.98878.98878,0,0,1-.58.709,2.93023,2.93023,0,0,1-1.039.117.4.4,0,1,0,0,.8,2.691,2.691,0,0,0,1.767-.425,1.95449,1.95449,0,0,0,.614-.956,5.29241,5.29241,0,0,0,.201-1.598,5.28757,5.28757,0,0,0-.201-1.598A1.79932,1.79932,0,0,0,36.392,17.66281Z"/><path class="cls-3" d="M36.392,24.56882a3.5848,3.5848,0,0,0-1.337-.17395.4.4,0,1,0,0,.79992,1.98913,1.98913,0,0,1,1.264.247,1.15606,1.15606,0,0,1,.355.578,4.51688,4.51688,0,0,1,.163,1.354,4.50933,4.50933,0,0,1-.163,1.353.98874.98874,0,0,1-.58.709,2.91164,2.91164,0,0,1-1.039.116.4.4,0,1,0,0,.8,2.67956,2.67956,0,0,0,1.767-.425,1.94688,1.94688,0,0,0,.614-.955,5.29234,5.29234,0,0,0,.201-1.598,5.28752,5.28752,0,0,0-.201-1.598A1.7993,1.7993,0,0,0,36.392,24.56882Z"/><path class="cls-3" d="M18.57,6.90884a5.29411,5.29411,0,0,0-1.598-.201V6.70779h-.001v.00007a5.28709,5.28709,0,0,0-1.597.201,1.79913,1.79913,0,0,0-1.207,1.044,3.58293,3.58293,0,0,0-.174,1.337.4.4,0,0,0,.8,0,1.98875,1.98875,0,0,1,.247-1.264,1.15491,1.15491,0,0,1,.578-.355,4.51364,4.51364,0,0,1,1.35352-.163,4.51348,4.51348,0,0,1,1.35346.163.99053.99053,0,0,1,.709.58,2.91324,2.91324,0,0,1,.116,1.039.4.4,0,0,0,.8,0,2.68047,2.68047,0,0,0-.425-1.767A1.96056,1.96056,0,0,0,18.57,6.90884Z"/><path class="cls-3" d="M25.475,6.90884a5.28676,5.28676,0,0,0-1.598-.201,5.29138,5.29138,0,0,0-1.598.201,1.79975,1.79975,0,0,0-1.20606,1.044,3.58406,3.58406,0,0,0-.17395,1.337.4.4,0,0,0,.8,0,1.9895,1.9895,0,0,1,.246-1.264,1.15891,1.15891,0,0,1,.579-.355,4.50855,4.50855,0,0,1,1.353-.163,4.5166,4.5166,0,0,1,1.354.163.98655.98655,0,0,1,.708.58,2.8886,2.8886,0,0,1,.117,1.039.4.4,0,0,0,.8,0,2.68041,2.68041,0,0,0-.425-1.767A1.959,1.959,0,0,0,25.475,6.90884Z"/><path class="cls-3" d="M32.381,6.90884a6.45111,6.45111,0,0,0-3.196,0,1.79758,1.79758,0,0,0-1.20605,1.044,3.58672,3.58672,0,0,0-.175,1.337.4.4,0,0,0,.8,0,1.995,1.995,0,0,1,.24707-1.264,1.15835,1.15835,0,0,1,.579-.355,5.69784,5.69784,0,0,1,2.706,0,.98644.98644,0,0,1,.709.58,2.9105,2.9105,0,0,1,.117,1.039.4.4,0,0,0,.8,0,2.68012,2.68012,0,0,0-.425-1.767A1.964,1.964,0,0,0,32.381,6.90884Z"/><path class="cls-3" d="M11.66008,25.31186a2.89119,2.89119,0,0,1,1.04-.11707.4.4,0,0,0,0-.79992,2.683,2.683,0,0,0-1.768.42492,1.95173,1.95173,0,0,0-.613.95606,5.25675,5.25675,0,0,0-.20093,1.598,5.26151,5.26151,0,0,0,.20093,1.598,1.79979,1.79979,0,0,0,1.04407,1.206,3.58512,3.58512,0,0,0,1.337.174.4.4,0,0,0,0-.8,1.98975,1.98975,0,0,1-1.264-.246,1.16731,1.16731,0,0,1-.356-.579,4.54779,4.54779,0,0,1-.162-1.353,4.55541,4.55541,0,0,1,.162-1.354A.9888.9888,0,0,1,11.66008,25.31186Z"/><path class="cls-3" d="M11.66008,18.40585a2.91474,2.91474,0,0,1,1.04-.11706.4.4,0,0,0,0-.79993,2.683,2.683,0,0,0-1.768.42493,1.95651,1.95651,0,0,0-.613.95605,5.25679,5.25679,0,0,0-.20093,1.598,5.26158,5.26158,0,0,0,.20093,1.598,1.79747,1.79747,0,0,0,1.04407,1.206,3.58626,3.58626,0,0,0,1.337.175.4.4,0,0,0,0-.8,1.995,1.995,0,0,1-1.264-.247,1.16731,1.16731,0,0,1-.356-.579,4.5477,4.5477,0,0,1-.162-1.353,4.54255,4.54255,0,0,1,.162-1.353A.98874.98874,0,0,1,11.66008,18.40585Z"/><path class="cls-3" d="M11.66008,11.49985a2.91328,2.91328,0,0,1,1.04-.117.4.4,0,0,0,0-.8,2.68261,2.68261,0,0,0-1.768.425,1.956,1.956,0,0,0-.613.956,5.26109,5.26109,0,0,0-.20093,1.598,5.26156,5.26156,0,0,0,.20093,1.598,1.79747,1.79747,0,0,0,1.04407,1.206,3.58626,3.58626,0,0,0,1.337.175.4.4,0,0,0,0-.8,1.995,1.995,0,0,1-1.264-.247,1.16731,1.16731,0,0,1-.356-.579,4.54779,4.54779,0,0,1-.162-1.353,4.54762,4.54762,0,0,1,.162-1.353A.9887.9887,0,0,1,11.66008,11.49985Z"/></svg>