<svg id="Laag_1" data-name="Laag 1" xmlns="http://www.w3.org/2000/svg" viewBox="0 0 48.18898 51.02362"><defs><style>.cls-1{fill:#fff;}.cls-2{fill:#f0919a;}.cls-3{fill:#fad7d7;}</style></defs><title>MyPlugin_setup_lecture</title><polyline class="cls-1" points="0 0 0 51.023 48.19 51.023 48.19 0 0 0"/><path class="cls-2" d="M26.675,24.99283a.39982.39982,0,0,0-.4.4,2.28344,2.28344,0,0,1-.254,1.372,1.16425,1.16425,0,0,1-.579.38,4.25748,4.25748,0,0,1-1.34693.171,4.25793,4.25793,0,0,1-1.3471-.171,1.019,1.019,0,0,1-.71295-.628,3.3462,3.3462,0,0,1-.12-1.124.4.4,0,0,0-.8,0,2.96177,2.96177,0,0,0,.418,1.856,1.946,1.946,0,0,0,.956.652,4.97875,4.97875,0,0,0,1.606.215,4.97867,4.97867,0,0,0,1.606-.215,1.83,1.83,0,0,0,1.20294-1.102,4.00693,4.00693,0,0,0,.17108-1.406A.3999.3999,0,0,0,26.675,24.99283Z"/><path class="cls-2" d="M41.256,24.99283a.39986.39986,0,0,0-.4.4,2.27618,2.27618,0,0,1-.254,1.372,1.164,1.164,0,0,1-.579.38,5.386,5.386,0,0,1-2.69293,0,1.01873,1.01873,0,0,1-.714-.628,3.32228,3.32228,0,0,1-.11908-1.124.40052.40052,0,0,0-.801,0,2.96263,2.96263,0,0,0,.4181,1.856,1.94913,1.94913,0,0,0,.957.652,6.103,6.103,0,0,0,3.211,0,1.83,1.83,0,0,0,1.203-1.102,3.98469,3.98469,0,0,0,.17108-1.406A.39991.39991,0,0,0,41.256,24.99283Z"/><path class="cls-2" d="M12.094,24.99283a.39982.39982,0,0,0-.4.4,2.283,2.283,0,0,1-.255,1.372,1.16071,1.16071,0,0,1-.57807.38,4.25788,4.25788,0,0,1-1.347.171,4.25838,4.25838,0,0,1-1.34705-.171,1.01907,1.01907,0,0,1-.71295-.628,3.32113,3.32113,0,0,1-.12-1.124.4.4,0,0,0-.8,0,2.95536,2.95536,0,0,0,.418,1.856,1.94619,1.94619,0,0,0,.956.652,4.97867,4.97867,0,0,0,1.606.215,4.97842,4.97842,0,0,0,1.606-.215,1.82641,1.82641,0,0,0,1.20208-1.102,4.00962,4.00962,0,0,0,.17194-1.406A.39986.39986,0,0,0,12.094,24.99283Z"/><path class="cls-2" d="M26.675,31.10281a.39983.39983,0,0,0-.4.4,2.287,2.287,0,0,1-.254,1.373,1.15728,1.15728,0,0,1-.579.379,4.22142,4.22142,0,0,1-1.34693.172,4.22186,4.22186,0,0,1-1.3471-.172,1.01786,1.01786,0,0,1-.71295-.627,3.34957,3.34957,0,0,1-.12-1.125.4.4,0,1,0-.8,0,2.96468,2.96468,0,0,0,.418,1.857,1.95217,1.95217,0,0,0,.956.652,4.97688,4.97688,0,0,0,1.606.215,4.9768,4.9768,0,0,0,1.606-.215,1.82974,1.82974,0,0,0,1.20294-1.102,4.00976,4.00976,0,0,0,.17108-1.407A.39992.39992,0,0,0,26.675,31.10281Z"/><path class="cls-2" d="M19.384,31.10281a.39991.39991,0,0,0-.4.4,2.27969,2.27969,0,0,1-.25409,1.373,1.15657,1.15657,0,0,1-.57892.379,4.21915,4.21915,0,0,1-1.34649.172,4.21922,4.21922,0,0,1-1.3465-.172,1.01762,1.01762,0,0,1-.713-.627,3.3,3.3,0,0,1-.12-1.125.4.4,0,1,0-.8,0,2.95733,2.95733,0,0,0,.417,1.857,1.95565,1.95565,0,0,0,.957.652,4.9731,4.9731,0,0,0,1.605.215v.00006h.001v-.00006a4.97277,4.97277,0,0,0,1.605-.215,1.82987,1.82987,0,0,0,1.203-1.102,3.98883,3.98883,0,0,0,.171-1.407A.39993.39993,0,0,0,19.384,31.10281Z"/><path class="cls-2" d="M41.256,31.10281a.39987.39987,0,0,0-.4.4,2.27974,2.27974,0,0,1-.254,1.373,1.157,1.157,0,0,1-.579.379,5.35626,5.35626,0,0,1-2.69293,0,1.01945,1.01945,0,0,1-.714-.627,3.32565,3.32565,0,0,1-.11908-1.125.4.4,0,1,0-.79993,0,2.95733,2.95733,0,0,0,.417,1.857,1.95538,1.95538,0,0,0,.957.652,4.96975,4.96975,0,0,0,1.605.215v.00006h.00091v-.00006a4.97386,4.97386,0,0,0,1.605-.215,1.82976,1.82976,0,0,0,1.203-1.102,3.98752,3.98752,0,0,0,.17108-1.407A.39993.39993,0,0,0,41.256,31.10281Z"/><path class="cls-2" d="M12.094,31.10281a.39984.39984,0,0,0-.4.4,2.28658,2.28658,0,0,1-.255,1.373,1.15377,1.15377,0,0,1-.57807.379,4.22181,4.22181,0,0,1-1.347.172,4.22231,4.22231,0,0,1-1.34705-.172,1.0179,1.0179,0,0,1-.71295-.627,3.32448,3.32448,0,0,1-.12-1.125.4.4,0,1,0-.8,0,2.95826,2.95826,0,0,0,.418,1.857,1.95242,1.95242,0,0,0,.956.652,4.9768,4.9768,0,0,0,1.606.215,4.97655,4.97655,0,0,0,1.606-.215,1.82618,1.82618,0,0,0,1.20208-1.102,4.01244,4.01244,0,0,0,.17194-1.407A.39987.39987,0,0,0,12.094,31.10281Z"/><path class="cls-2" d="M33.96592,31.10281a.4.4,0,0,0-.4.4,2.28524,2.28524,0,0,1-.255,1.373,1.15178,1.15178,0,0,1-.57892.379,5.35653,5.35653,0,0,1-2.693,0,1.01764,1.01764,0,0,1-.713-.627,3.32448,3.32448,0,0,1-.12-1.125.4.4,0,1,0-.8,0,2.9586,2.9586,0,0,0,.418,1.857,1.95284,1.95284,0,0,0,.95605.652,6.10483,6.10483,0,0,0,3.212,0,1.82852,1.82852,0,0,0,1.202-1.102,4.01672,4.01672,0,0,0,.172-1.407A.4.4,0,0,0,33.96592,31.10281Z"/><path class="cls-2" d="M26.675,18.88785a.40044.40044,0,0,0-.4.4,2.287,2.287,0,0,1-.254,1.373,1.15732,1.15732,0,0,1-.579.379,4.22349,4.22349,0,0,1-1.34693.172,4.22393,4.22393,0,0,1-1.3471-.172,1.01807,1.01807,0,0,1-.71295-.627,3.34918,3.34918,0,0,1-.12-1.125.4.4,0,0,0-.8,0,2.96462,2.96462,0,0,0,.418,1.857,1.95193,1.95193,0,0,0,.956.652,4.97875,4.97875,0,0,0,1.606.215,4.97867,4.97867,0,0,0,1.606-.215,1.82982,1.82982,0,0,0,1.20294-1.10206,4.00956,4.00956,0,0,0,.17108-1.407A.40053.40053,0,0,0,26.675,18.88785Z"/><path class="cls-2" d="M19.384,18.88785a.40052.40052,0,0,0-.4.4,2.27962,2.27962,0,0,1-.25409,1.373,1.1566,1.1566,0,0,1-.57892.379,4.22122,4.22122,0,0,1-1.34649.172,4.22129,4.22129,0,0,1-1.3465-.172,1.01783,1.01783,0,0,1-.713-.627,3.29959,3.29959,0,0,1-.12-1.125.4.4,0,0,0-.8,0,2.95727,2.95727,0,0,0,.417,1.857,1.95541,1.95541,0,0,0,.957.652,4.9747,4.9747,0,0,0,1.605.2149v.00006h.001v-.00006a4.97436,4.97436,0,0,0,1.605-.2149,1.83,1.83,0,0,0,1.203-1.10206,3.98864,3.98864,0,0,0,.171-1.407A.40054.40054,0,0,0,19.384,18.88785Z"/><path class="cls-2" d="M41.256,18.88785a.40048.40048,0,0,0-.4.4,2.27967,2.27967,0,0,1-.254,1.373,1.157,1.157,0,0,1-.579.379,5.35656,5.35656,0,0,1-2.69293,0,1.01967,1.01967,0,0,1-.714-.627,3.32527,3.32527,0,0,1-.11908-1.125.4.4,0,0,0-.79993,0,2.95727,2.95727,0,0,0,.417,1.857,1.95513,1.95513,0,0,0,.957.652,4.97135,4.97135,0,0,0,1.605.2149v.00006h.00091v-.00006a4.97545,4.97545,0,0,0,1.605-.2149,1.82984,1.82984,0,0,0,1.203-1.10206,3.98733,3.98733,0,0,0,.17108-1.407A.40054.40054,0,0,0,41.256,18.88785Z"/><path class="cls-2" d="M12.094,18.88785a.40045.40045,0,0,0-.4.4,2.28651,2.28651,0,0,1-.255,1.373,1.1538,1.1538,0,0,1-.57807.379,4.22389,4.22389,0,0,1-1.347.172,4.22438,4.22438,0,0,1-1.34705-.172,1.01811,1.01811,0,0,1-.71295-.627,3.3241,3.3241,0,0,1-.12-1.125.4.4,0,0,0-.8,0,2.9582,2.9582,0,0,0,.418,1.857,1.95218,1.95218,0,0,0,.956.652,4.97867,4.97867,0,0,0,1.606.215,4.97842,4.97842,0,0,0,1.606-.215A1.82626,1.82626,0,0,0,12.322,20.69479a4.01225,4.01225,0,0,0,.17194-1.407A.40048.40048,0,0,0,12.094,18.88785Z"/><path class="cls-2" d="M33.96592,18.88785a.40057.40057,0,0,0-.4.4,2.28517,2.28517,0,0,1-.255,1.373,1.15181,1.15181,0,0,1-.57892.379,5.35683,5.35683,0,0,1-2.693,0,1.01785,1.01785,0,0,1-.713-.627,3.3241,3.3241,0,0,1-.12-1.125.4.4,0,0,0-.8,0,2.95854,2.95854,0,0,0,.418,1.857,1.95259,1.95259,0,0,0,.95605.652,6.10674,6.10674,0,0,0,3.212,0,1.82861,1.82861,0,0,0,1.202-1.10206,4.01652,4.01652,0,0,0,.172-1.407A.40059.40059,0,0,0,33.96592,18.88785Z"/><path class="cls-2" d="M26.675,12.80783a.39983.39983,0,0,0-.4.4,2.28725,2.28725,0,0,1-.254,1.373,1.1581,1.1581,0,0,1-.579.379,4.22372,4.22372,0,0,1-1.34693.172,4.22417,4.22417,0,0,1-1.3471-.172,1.01818,1.01818,0,0,1-.71295-.627,3.35293,3.35293,0,0,1-.12-1.125.4.4,0,1,0-.8,0,2.9645,2.9645,0,0,0,.418,1.85693,1.95232,1.95232,0,0,0,.956.652,4.97875,4.97875,0,0,0,1.606.215,4.97867,4.97867,0,0,0,1.606-.215,1.8299,1.8299,0,0,0,1.20294-1.102,4.01265,4.01265,0,0,0,.17108-1.407A.39992.39992,0,0,0,26.675,12.80783Z"/><path class="cls-2" d="M37.071,15.71683a6.103,6.103,0,0,0,3.211,0,1.82992,1.82992,0,0,0,1.203-1.102,3.99039,3.99039,0,0,0,.17108-1.407.4.4,0,1,0-.8,0,2.28,2.28,0,0,1-.254,1.373,1.15781,1.15781,0,0,1-.579.379,5.35626,5.35626,0,0,1-2.69293,0,1.01789,1.01789,0,0,1-.714-.627,3.32894,3.32894,0,0,1-.11908-1.125.40052.40052,0,0,0-.801,0,2.96536,2.96536,0,0,0,.4181,1.85693A1.95552,1.95552,0,0,0,37.071,15.71683Z"/><path class="cls-2" d="M12.094,12.80783a.39984.39984,0,0,0-.4.4,2.2868,2.2868,0,0,1-.255,1.373,1.15458,1.15458,0,0,1-.57807.379,4.22412,4.22412,0,0,1-1.347.172,4.22462,4.22462,0,0,1-1.34705-.172,1.01823,1.01823,0,0,1-.71295-.627,3.32779,3.32779,0,0,1-.12-1.125.4.4,0,1,0-.8,0,2.95809,2.95809,0,0,0,.418,1.85693,1.95257,1.95257,0,0,0,.956.652,4.97867,4.97867,0,0,0,1.606.215,4.97842,4.97842,0,0,0,1.606-.215,1.82634,1.82634,0,0,0,1.20208-1.102,4.01536,4.01536,0,0,0,.17194-1.407A.39987.39987,0,0,0,12.094,12.80783Z"/><path class="cls-3" d="M16.804,23.5748a2.97952,2.97952,0,1,0,2.98,2.979A2.97935,2.97935,0,0,0,16.804,23.5748Z"/><path class="cls-3" d="M31.386,23.5748a2.97952,2.97952,0,1,0,2.979,2.979A2.97868,2.97868,0,0,0,31.386,23.5748Z"/><path class="cls-3" d="M16.804,11.39084a2.97949,2.97949,0,1,0,2.98,2.979A2.97931,2.97931,0,0,0,16.804,11.39084Z"/><path class="cls-3" d="M31.386,17.34982a2.97949,2.97949,0,1,0-2.979-2.98A2.98013,2.98013,0,0,0,31.386,17.34982Z"/></svg>