<svg id="Laag_1" data-name="Laag 1" xmlns="http://www.w3.org/2000/svg" viewBox="0 0 48.18898 51.02362"><defs><style>.cls-1{fill:#fff;}.cls-2{fill:#f0919a;}</style></defs><title>MyPlugin_setup_surface</title><polygon class="cls-1" points="0 0 0 51.024 48.188 51.024 48.188 0 0 0 0 0"/><path class="cls-2" d="M13.91992,27.6088l1.989-.051,1.87005.051.085-.799-.663-.204v-4.794l.391-.272a2.82506,2.82506,0,0,1,1.41095-.612c.493,0,.79907.34.79907,1.02v4.658l-.62909.204.085.799,1.717-.051,1.802.051.085-.799-.62909-.204v-4.794l.37408-.272a2.9388,2.9388,0,0,1,1.428-.612c.51,0,.799.34.799,1.02v4.658l-.66308.204.10211.799,1.904-.051,2.03992.051.085-.799-1.037-.204v-4.709c0-2.074-.663-2.70294-2.686-2.70294l-2.431,1.632c-.221-1.224-1.003-1.632-2.652-1.632l-2.329,1.598-.102-1.394-1.02.051-2.329.493.085.816,1.02-.051v5.899l-.986.204.085.799ZM29.05,22.23682h4.709l.374-.799v-.493H31.294l-1.377.459,1.785-1.19c1.445-.952,2.295-1.734,2.295-2.907,0-1.054-.952-1.751-2.329-1.751l-2.499.697v1.36h1.377l.28906-1.275a1.71111,1.71111,0,0,1,.61194-.102c.45911,0,.731.391.731,1.02a4.00087,4.00087,0,0,1-1.49591,2.635l-1.87,1.87.238.476Z"/></svg>